<svg width="117" height="147" viewBox="0 0 117 147" fill="none" xmlns="http://www.w3.org/2000/svg">
<path d="M109.938 4.58035C117.85 9.2926 116.366 22.6923 116.769 39.9879C117 49.6494 117.043 53.8615 116.957 62.7331C116.884 69.4724 117.49 81.3187 115.443 86.9788C113.353 92.744 107.675 94.1392 104.086 95.4818C99.5608 97.1666 94.9776 98.3248 90.3656 98.7725C87.6417 99.0357 84.9178 99.2989 82.2082 99.7201C80.6084 99.9835 77.9854 99.6938 76.5585 101.326C74.8291 103.327 73.6328 112.462 71.6151 117.49C69.8135 121.965 67.4643 126.177 64.726 128.652C63.9621 129.336 63.1262 129.915 62.2758 129.678C59.6095 128.994 59.8113 120.728 59.7969 117.147C59.7825 114.147 59.869 110.961 60.2005 107.934C60.5319 104.906 59.1628 102.168 57.4765 102.432L50.9765 103.458C38.5098 103.827 35.5985 102.985 24.3712 98.8778C19.8025 97.2192 17.1794 91.1381 16.9344 82.398C16.6173 70.9729 16.8911 59.3898 16.8623 47.9645C16.8479 38.6191 16.0408 28.0625 18.7936 19.6384C21.6905 10.7668 27.9311 8.08163 33.5231 6.55476C47.5896 2.84289 61.757 1.18438 75.9821 1.00011C75.9821 1.00011 103.25 0.605226 109.938 4.58035Z" fill="#F7BC28"/>
<path d="M39.0286 45.095C58.125 45.9902 77.308 45.253 96.3612 42.7521C99.114 42.3835 99.1428 34.4859 96.3612 34.8545C77.308 37.3554 58.125 38.0925 39.0286 37.1975C36.247 37.0658 36.247 44.9634 39.0286 45.095Z" fill="white"/>
<path d="M35.7571 67.3137C48.1086 67.3137 60.46 66.2606 72.8115 65.9974C82.3669 65.8131 91.8791 66.6556 101.406 65.155C104.158 64.7338 104.187 56.8362 101.406 57.2574C91.8791 58.7317 82.3669 57.8892 72.8115 58.0998C60.46 58.363 48.1086 59.4161 35.7571 59.4161C32.9755 59.4161 32.9611 67.3137 35.7571 67.3137Z" fill="white"/>
<path d="M16.214 137.839C16.3581 136.26 15.796 134.707 14.9313 134.391C9.62748 132.469 4.66961 127.888 1.55653 119.385C-3.77607 104.801 5.77937 89.9009 12.582 85.0044C19.5721 79.9762 27.9024 80.5554 34.3736 87.5843C34.7916 88.0318 35.1807 88.5056 35.5698 89.0321C40.225 95.2186 44.1164 107.407 42.8769 117.595C42.4157 121.36 41.2772 124.835 39.2018 127.651C35.3392 132.916 30.0931 134.864 25.092 135.365C24.1264 135.47 23.2184 136.207 22.5842 137.523C21.5321 139.682 19.7738 143.078 18.1596 145.421C17.0931 146.974 15.5366 145.237 15.7672 142.789L16.214 137.839Z" fill="#39B55D"/>
<path d="M12.7691 105.617C19.0673 105.617 25.3656 105.617 31.6638 105.617C33.9842 105.617 33.9842 99.0357 31.6638 99.0357C25.3656 99.0357 19.0673 99.0357 12.7691 99.0357C10.4487 99.0357 10.4487 105.617 12.7691 105.617Z" fill="white"/>
<path d="M11.8467 119.622C18.3756 119.622 24.9044 119.622 31.4332 119.622C33.7536 119.622 33.7536 113.041 31.4332 113.041C24.9044 113.041 18.3756 113.041 11.8467 113.041C9.52635 113.041 9.52635 119.622 11.8467 119.622Z" fill="white"/>
</svg>
